<svg data-name="Layer 1" xmlns="http://www.w3.org/2000/svg" viewBox="0 0 247 247" fill="#fff"><title>label-yujaeha</title><ellipse cx="88.93" cy="57.7" rx="10.86" ry="10"/><ellipse cx="137.66" cy="184.31" rx="9.58" ry="8.75"/><path d="M.5.5v246h246V.5zm118 76.77h11.25v22.91h6.66V77.27h11.25v68.3h-11.25v-34.15h-6.66v30.82H118.5zM88.93 38.54c11.5 0 20.82 8.58 20.82 19.16s-9.32 19.16-20.82 19.16-20.82-8.58-20.82-19.16 9.32-19.16 20.82-19.16zM79.77 91c0 5.83-4.58 14.16-4.58 14.16-3.33 7.08-10.83 13.74-10.83 13.74l-7.5-7.5a67.25 67.25 0 0 0 7.91-9.16A23.6 23.6 0 0 0 68.94 91H56.86v-9.56h22.91zm34.15 0H99.76v27.9H88.52V81.44h25.41zm23.74 110.8c-10.58 0-19.16-7.83-19.16-17.49s8.58-17.49 19.16-17.49 19.16 7.83 19.16 17.49-8.58 17.49-19.16 17.49zm23.74-42.48h-46.65v-11.25h46.65zm28.74 16.24h-12.5v32.9H166.4v-68.3h11.25v24.16h12.49z"/></svg>