<svg data-name="Layer 1" xmlns="http://www.w3.org/2000/svg" viewBox="0 0 247 247" fill="#fff"><title>label-tuneup</title>
<path d="M129.4 131.8c-2.24 6.16-9 11.16-15.21 11.16h-3.62l7.91-22.32h3.83c6.16.02 9.33 5.01 7.09 11.16zM246.5.5v246H.5V.5h109L80.28 83c-1.5 4.09-6 7.41-10.12 7.41S64 87.1 65.43 83l.05-.16L77.31 49.6c1.24-3.42-.52-6.18-3.93-6.18S66.19 46.18 65 49.6L53.13 82.94a22.24 22.24 0 0 0-1 3.53C50.49 95.7 56 102.7 65.7 102.7S86 95.7 91 86.47A26 26 0 0 0 92.65 83L121.85.5zM44.61 55.68h6.16c3.39 0 7.14-2.75 8.37-6.14s-.52-6.2-3.91-6.2H28c-3.39 0-7.14 2.8-8.37 6.19s.51 6.14 3.91 6.14h8.79L17.81 96.51c-1.24 3.4.52 6.16 3.92 6.16s7.16-2.76 8.4-6.16zm16.21 112c9.7 0 20.3-7 25.31-16.23a26 26 0 0 0 1.63-3.48l30-84.79c1.49-4.09 6.07-7.41 10.16-7.41s6.17 3.27 4.74 7.33l-11.84 33.42c-1.24 3.41.52 6.18 3.93 6.18s7.18-2.76 8.42-6.18L145 63.17a22 22 0 0 0 .95-3.53c1.69-9.22-3.82-16.23-13.52-16.23s-20.3 7-25.31 16.23c-.62 1.13-1.61 3.51-1.61 3.53l-30.13 84.74c-1.48 4.09-6 7.41-10.1 7.41s-6.16-3.27-4.74-7.33l.05-.15 11.82-33.3c1.24-3.41-.53-6.18-3.93-6.18s-7.18 2.77-8.42 6.18l-11.81 33.35a22.44 22.44 0 0 0-.95 3.53c-1.69 9.22 3.82 16.23 13.52 16.23zM142.54 119c-1.85-6.4-7.51-10.64-15.71-10.65h-10.09c-3.4 0-7.16 2.76-8.39 6.16l-29.88 84.36c-1.24 3.4.52 6.16 3.92 6.16s7.15-2.76 8.39-6.16l15.44-43.63h4.73c7-.35 14.19-3.59 20.06-8.55a36.11 36.11 0 0 0 10.7-14.85 20.66 20.66 0 0 0 .83-12.84zm48.75-75.67h-27.2s-.86.09-1.28.17a10 10 0 0 0-7.11 6L139 96.51c-1.24 3.4.52 6.16 3.92 6.16h27.23c3.39 0 7.14-2.75 8.37-6.14s-.52-6.14-3.91-6.14h-21.1l4-11.22h21c3.39 0 7.14-2.75 8.37-6.14s-.51-6.13-3.9-6.13h-21.13l4-11.22h21c3.39 0 7.14-2.75 8.37-6.14s-.54-6.19-3.93-6.19z"/></svg>