<svg data-name="Layer 1" xmlns="http://www.w3.org/2000/svg" viewBox="0 0 247 247" fill="#fff"><title>label-storyup</title><path d="M166.67 131.57c-2.24 6.16-9 11.16-15.21 11.16h-3.62l7.91-22.32h3.83c6.15.02 9.33 5 7.09 11.16zm-1.45-76.07h-7.5l-4 11.2h8.45a10.34 10.34 0 0 0 4.59-1 7.07 7.07 0 0 0 2.72-2.23 5 5 0 0 0 .76-1.69 6.5 6.5 0 0 0 .16-1.77 3.94 3.94 0 0 0-.79-2.39 5 5 0 0 0-4.39-2.12zm-59.79 34.92c7.69 0 11.8-5.91 14.13-13.2l3.1-8.79C125 61.13 125.28 54 117.09 54c-7.75 0-11.92 7.17-14.25 14.46l-3.11 8.79c-2.34 7.26-1.34 13.17 5.7 13.17zM246.5.5v246H.5V102.42h17.73c9-.29 15.62-4.28 20.09-12.21.37-.64.71-1.3 1-2a23 23 0 0 0 1.24-3.18c0-.07 2.5-6.86-3-11.85-.16-.15-.35-.28-.52-.43a27.64 27.64 0 0 0-3.31-2.43 32.51 32.51 0 0 0-5.4-2.66 21.93 21.93 0 0 1-5-2.32 3.91 3.91 0 0 1-.32-.24 3.25 3.25 0 0 1-1-1.5 6.89 6.89 0 0 1 3.62-7.23 11.8 11.8 0 0 1 3.67-.9c.37 0 .74-.06 1.11-.08h9.61a9.69 9.69 0 0 0 8.37-6.14 3.29 3.29 0 0 0 .1-.38c1-3.21-.74-5.82-4-5.82H32.27c-9 .29-15.62 4.34-20.1 12.26-.36.64-.71 1.3-1 2a22.29 22.29 0 0 0-1.27 3.21c0 .07-2.5 6.87 3 11.85.16.15.35.28.52.43a27.28 27.28 0 0 0 3.3 2.44 33.2 33.2 0 0 0 5.4 2.65 22.22 22.22 0 0 1 5 2.32l.32.24a3.26 3.26 0 0 1 1 1.5 6.88 6.88 0 0 1-3.62 7.23 11.75 11.75 0 0 1-3.67.9q-.55.05-1.1.08H.5V.5zM90.56 68.42l-3.1 8.79c-4.46 13.94 1.86 25.24 14.12 25.24 14.7 0 25.82-11.3 30.28-25.24l3.1-8.79c4.46-13.94-1.86-25.31-14.12-25.31C106 43.12 95 54.49 90.56 68.42zm-11.25-13h6.17c3.39 0 7.14-2.75 8.37-6.14s-.52-6.2-3.91-6.2H62.68c-3.39 0-7.14 2.8-8.37 6.19s.51 6.14 3.9 6.14H67L52.52 96.27c-1.24 3.4.52 6.16 3.91 6.16s7.16-2.76 8.4-6.16zm100.5 63.34c-1.85-6.4-7.51-10.64-15.72-10.65H154c-3.4 0-7.16 2.76-8.4 6.16l-29.89 84.35c-1.24 3.4.52 6.16 3.92 6.16s7.16-2.76 8.4-6.16L143.48 155h4.74c7-.35 14.19-3.59 20.07-8.55A36.15 36.15 0 0 0 179 131.6a20.64 20.64 0 0 0 .81-12.81zm-10.12-75.64h-13.75c-2.82 0-5.88 2-7.55 4.55 0 0-.57 1-.63 1.11l-13.83 39-21.31 59.88c-1.49 4.09-6 7.41-10.1 7.41s-6.17-3.27-4.74-7.33v-.15l11.82-33.3c1.24-3.41-.52-6.18-3.93-6.18s-7.18 2.77-8.42 6.18l-11.77 33.37a22.63 22.63 0 0 0-.95 3.53c-1.68 9.23 3.82 16.23 13.53 16.23s20.31-7 25.32-16.23a25.86 25.86 0 0 0 1.64-3.48l24.3-68.58h10.34c4.57 0 2.42 5.38 1.71 7.93l-3.29 9.24c-1.24 3.41.52 6.18 3.94 6.18s7.18-2.76 8.42-6.18l3.29-9.3c1.13-3 2.46-7.25 2.22-9a5.21 5.21 0 0 0-2.32-4.13c6-1.54 8.72-10.88 9.41-13.62 0-.07.15-.66.18-.84 1.69-9.21-3.82-16.29-13.53-16.29zm58.86 0c-3.41 0-7.16 2.76-8.4 6.16L213.43 68c-1.49 4.09-5.84 7.41-9.93 7.41-3.91 0-6.14-3-5-6.86.1-.21 6.82-19.22 6.82-19.22 1.24-3.4-.37-6.22-3.78-6.22s-7.3 2.82-8.54 6.22l-6.59 18.52c0 .09-.76 2.53-1 3.63-1.68 9.23 3.82 16.24 13.54 16.24a24.08 24.08 0 0 0 8.15-1.54l-13.83 38.92c-1.24 3.4.52 6.16 3.92 6.16s7.16-2.76 8.4-6.16l26.89-75.81c1.23-3.37-.48-6.14-3.93-6.14z"/></svg>