<svg data-name="Layer 1" xmlns="http://www.w3.org/2000/svg" viewBox="0 0 247 247" fill="#fff"><title>label-stageup</title><path d="M.5.5v89.74h18.22c.37 0 .74 0 1.11-.08a11.71 11.71 0 0 0 3.67-.9 6 6 0 0 0 3-3 6 6 0 0 0 .62-4.26 3.22 3.22 0 0 0-1-1.49l-.31-.24a22.16 22.16 0 0 0-5-2.32 33 33 0 0 1-5.4-2.66 27.82 27.82 0 0 1-3.31-2.44c-.17-.15-.35-.28-.52-.43-5.5-5-3-11.78-3-11.84a22.28 22.28 0 0 1 1.25-3.18c.32-.67.66-1.32 1-2 4.47-7.93 11.14-12 20.1-12.26h12.25c3.26 0 5 2.6 4 5.82a3.53 3.53 0 0 1-.1.38c-1.23 3.4-5 6.14-8.37 6.14h-9.6c-.38 0-.74 0-1.11.08a11.84 11.84 0 0 0-3.67.9 6.89 6.89 0 0 0-3.62 7.23 3.25 3.25 0 0 0 1 1.49c.11.09.21.17.32.24a22.05 22.05 0 0 0 5 2.32 32.84 32.84 0 0 1 5.4 2.65 27.72 27.72 0 0 1 3.31 2.43c.17.15.35.28.52.43 5.5 5 3 11.78 3 11.85A23 23 0 0 1 38 88.34c-.33.67-.67 1.32-1 2-4.47 7.93-11.14 11.92-20.09 12.21H.5v144h246V.5zm50.69 95.87l14.48-40.83h-8.79c-3.39 0-5.13-2.75-3.91-6.14s5-6.19 8.37-6.19h27.27c3.39 0 5.14 2.8 3.91 6.19s-5 6.14-8.37 6.14H78L63.5 96.37c-1.24 3.4-5 6.16-8.4 6.16s-5.15-2.76-3.91-6.16zm-15.85 54.91a22.66 22.66 0 0 1 .95-3.53l11.82-33.31c1.25-3.41 5-6.18 8.42-6.18s5.18 2.77 3.94 6.18L48.65 147.7v.15c-1.43 4.06.67 7.33 4.74 7.33s8.62-3.32 10.11-7.41L93.58 63a26.37 26.37 0 0 1 1.59-3.48c5-9.22 15.62-16.3 25.33-16.3s15.21 7.07 13.53 16.3a22.67 22.67 0 0 1-.95 3.53l-11.81 33.3c-1.24 3.41-5 6.18-8.42 6.18s-5.17-2.76-3.93-6.18l4.93-13.89H99L75.84 147.8a26.7 26.7 0 0 1-1.64 3.48c-5 9.23-15.62 16.23-25.33 16.23s-15.21-7-13.53-16.23zm94.46-19.58a36.18 36.18 0 0 1-10.7 14.85c-5.87 5-13.11 8.21-20.06 8.55H94.3l-15.45 43.63c-1.24 3.4-5 6.16-8.4 6.16s-5.16-2.76-3.92-6.16l29.89-84.35c1.23-3.4 5-6.16 8.4-6.16h10.09c8.2 0 13.86 4.25 15.72 10.65a20.65 20.65 0 0 1-.83 12.83zm31.11-29.78a7.59 7.59 0 0 1-2.73.55 5 5 0 0 1-.53 0 4.32 4.32 0 0 1-2.34-.93l-.46.11a26.92 26.92 0 0 1-6.83.91 18.76 18.76 0 0 1-2.32-.15c-10.73-1.34-16-12.06-11.82-25.09L137 68.5a42 42 0 0 1 7.6-14.06c5.59-6.72 13.34-11.19 22.58-11.22h12.18c3.38 0 5.13 2.8 3.9 6.19a9.74 9.74 0 0 1-8.35 6.13H163a13.2 13.2 0 0 0-6.12 1.74 20.66 20.66 0 0 0-7.31 10.33l-3.76 10.52c-1.84 5.76-1.92 11.41 2.95 12.67 5.36 1.2 9.24-2.06 11.24-6.67l1.8-5.07h-4.43a4.78 4.78 0 0 1-2.49-.64c-1.66-1-2.29-3.09-1.42-5.5 1.23-3.39 5-6.14 8.37-6.14H171c3.4 0 5.15 2.75 3.91 6.14l-2.17 6.14-6.12 17.26a10 10 0 0 1-5.71 5.6zm67.63-52.51c-1.23 3.38-5 6.14-8.37 6.14h-21l-4 11.22h21.09c3.38 0 5.13 2.75 3.9 6.13s-5 6.14-8.37 6.14h-21l-4 11.22H208c3.39 0 5.14 2.75 3.91 6.14s-5 6.14-8.37 6.14H176.3c-3.41 0-5.15-2.76-3.92-6.16l16.66-47a10 10 0 0 1 7.11-6c.43-.08 1.28-.17 1.28-.17h27.21c3.36 0 5.13 2.79 3.9 6.2zm-111.05 82.25c-2.24 6.16-9.05 11.16-15.21 11.16h-3.63l7.91-22.32h3.84c6.15.02 9.33 5.01 7.09 11.16zm.7-61.44h-14.87l2.55-7.22c1.49-4.09 6.07-7.41 10.17-7.41s6.17 3.27 4.74 7.33l-.06.15z"/></svg>